<svg xmlns="http://www.w3.org/2000/svg" viewBox="0 0 47.49 49.94" id="SalesReport"><rect width="8.96" height="20.22" y="23.78" fill="#efb848" rx=".55" class="color4895ef svgShape"></rect><rect width="8.96" height="24.16" x="19.27" y="19.85" fill="#f7b225" rx=".86" class="colorf72585 svgShape"></rect><rect width="8.96" height="14.03" x="38.53" y="29.98" fill="#f7b836" rx="1.01" class="colorffb703 svgShape"></rect><path fill="#efb848" d="M41.62 22.95a1.51 1.51 0 0 1-1-.39L26.06 9.32a1.5 1.5 0 1 1 2-2.22l14.56 13.24a1.5 1.5 0 0 1 .1 2.12 1.48 1.48 0 0 1-1.1.49zM7.4 15.04a1.5 1.5 0 0 1-.69-2.83l12.37-6.34a1.5 1.5 0 1 1 1.36 2.67L8.08 14.87a1.51 1.51 0 0 1-.68.17z" class="color4895ef svgShape"></path><circle cx="4.48" cy="15.03" r="3.73" fill="#c99937" class="color3f37c9 svgShape"></circle><circle cx="23.75" cy="5.19" r="5.19" fill="#c99937" class="color3f37c9 svgShape"></circle><circle cx="43.01" cy="22.72" r="2.89" fill="#c99937" class="color3f37c9 svgShape"></circle><path fill="#a3720c" d="M45.92 49.93H1.58a1.58 1.58 0 1 1 0-3.15h44.34a1.58 1.58 0 1 1 0 3.15Z" class="color3a0ca3 svgShape"></path></svg>